<mxfile host="app.diagrams.net" agent="Mozilla/5.0 (Windows NT 10.0; Win64; x64) AppleWebKit/537.36 (KHTML, like Gecko) Chrome/137.0.0.0 Safari/537.36" version="27.1.5">
  <diagram name="Page-1" id="FEjrkqeZDdIg-vik-IkH">
    <mxGraphModel dx="2066" dy="1145" grid="1" gridSize="10" guides="1" tooltips="1" connect="1" arrows="1" fold="1" page="1" pageScale="1" pageWidth="827" pageHeight="1169" math="0" shadow="0">
      <root>
        <mxCell id="0" />
        <mxCell id="1" parent="0" />
        <mxCell id="g6BjV7B2hw-Xopt8YtrM-8" value="&lt;font style=&quot;color: light-dark(rgb(0, 0, 0), rgb(0, 0, 0));&quot;&gt;KORISNIK&lt;/font&gt;" style="rounded=0;whiteSpace=wrap;html=1;fillColor=light-dark(#FFFFFF,#FFFFFF);" parent="1" vertex="1">
          <mxGeometry x="190" y="340" width="120" height="60" as="geometry" />
        </mxCell>
        <mxCell id="g6BjV7B2hw-Xopt8YtrM-9" value="&lt;font style=&quot;color: light-dark(rgb(0, 0, 0), rgb(0, 0, 0));&quot;&gt;DIONICA&lt;/font&gt;" style="rounded=0;whiteSpace=wrap;html=1;fillColor=light-dark(#FFFFFF,#FFFFFF);" parent="1" vertex="1">
          <mxGeometry x="190" y="860" width="120" height="60" as="geometry" />
        </mxCell>
        <mxCell id="g6BjV7B2hw-Xopt8YtrM-10" value="&lt;font style=&quot;color: light-dark(rgb(0, 0, 0), rgb(0, 0, 0));&quot;&gt;POVIJEST CIJENA&lt;/font&gt;" style="rounded=0;whiteSpace=wrap;html=1;fillColor=light-dark(#FFFFFF,#FFFFFF);" parent="1" vertex="1">
          <mxGeometry x="640" y="860" width="120" height="60" as="geometry" />
        </mxCell>
        <mxCell id="g6BjV7B2hw-Xopt8YtrM-11" value="&lt;font style=&quot;color: light-dark(rgb(0, 0, 0), rgb(0, 0, 0));&quot;&gt;ANALIZA&lt;/font&gt;" style="rounded=0;whiteSpace=wrap;html=1;fillColor=light-dark(#FFFFFF,#FFFFFF);" parent="1" vertex="1">
          <mxGeometry x="190" y="610" width="120" height="60" as="geometry" />
        </mxCell>
        <mxCell id="g6BjV7B2hw-Xopt8YtrM-12" value="&lt;font style=&quot;color: light-dark(rgb(0, 0, 0), rgb(0, 0, 0));&quot;&gt;IZVJEŠTAJ&lt;/font&gt;" style="rounded=0;whiteSpace=wrap;html=1;fillColor=light-dark(#FFFFFF,#FFFFFF);" parent="1" vertex="1">
          <mxGeometry x="660" y="340" width="120" height="60" as="geometry" />
        </mxCell>
        <mxCell id="g6BjV7B2hw-Xopt8YtrM-13" value="&lt;font style=&quot;color: light-dark(rgb(0, 0, 0), rgb(0, 0, 0));&quot;&gt;IZVRŠAVA&lt;/font&gt;" style="rhombus;whiteSpace=wrap;html=1;fillColor=light-dark(#FFFFFF,#FFFFFF);" parent="1" vertex="1">
          <mxGeometry x="210" y="460" width="80" height="80" as="geometry" />
        </mxCell>
        <mxCell id="g6BjV7B2hw-Xopt8YtrM-14" value="" style="endArrow=none;html=1;rounded=0;entryX=0.5;entryY=1;entryDx=0;entryDy=0;exitX=0.5;exitY=0;exitDx=0;exitDy=0;strokeColor=light-dark(#000000,#000000);" parent="1" source="g6BjV7B2hw-Xopt8YtrM-13" target="g6BjV7B2hw-Xopt8YtrM-8" edge="1">
          <mxGeometry width="50" height="50" relative="1" as="geometry">
            <mxPoint x="390" y="710" as="sourcePoint" />
            <mxPoint x="440" y="660" as="targetPoint" />
          </mxGeometry>
        </mxCell>
        <mxCell id="g6BjV7B2hw-Xopt8YtrM-16" value="1" style="edgeLabel;html=1;align=center;verticalAlign=middle;resizable=0;points=[];fontColor=light-dark(#000000,#000000);" parent="g6BjV7B2hw-Xopt8YtrM-14" vertex="1" connectable="0">
          <mxGeometry x="0.5" y="-3" relative="1" as="geometry">
            <mxPoint x="7" as="offset" />
          </mxGeometry>
        </mxCell>
        <mxCell id="g6BjV7B2hw-Xopt8YtrM-15" value="" style="endArrow=classic;html=1;rounded=0;exitX=0.5;exitY=1;exitDx=0;exitDy=0;entryX=0.5;entryY=0;entryDx=0;entryDy=0;strokeColor=light-dark(#000000,#000000);" parent="1" source="g6BjV7B2hw-Xopt8YtrM-13" target="g6BjV7B2hw-Xopt8YtrM-11" edge="1">
          <mxGeometry width="50" height="50" relative="1" as="geometry">
            <mxPoint x="390" y="710" as="sourcePoint" />
            <mxPoint x="440" y="660" as="targetPoint" />
          </mxGeometry>
        </mxCell>
        <mxCell id="g6BjV7B2hw-Xopt8YtrM-17" value="N" style="edgeLabel;html=1;align=center;verticalAlign=middle;resizable=0;points=[];fontColor=light-dark(#000000,#000000);" parent="1" vertex="1" connectable="0">
          <mxGeometry x="350" y="580" as="geometry">
            <mxPoint x="-85" y="19" as="offset" />
          </mxGeometry>
        </mxCell>
        <mxCell id="g6BjV7B2hw-Xopt8YtrM-18" value="&lt;font style=&quot;color: light-dark(rgb(0, 0, 0), rgb(9, 9, 9));&quot;&gt;KREIRA&lt;/font&gt;" style="rhombus;whiteSpace=wrap;html=1;fillColor=light-dark(#FFFFFF,#FFFFFF);" parent="1" vertex="1">
          <mxGeometry x="430" y="330" width="80" height="80" as="geometry" />
        </mxCell>
        <mxCell id="g6BjV7B2hw-Xopt8YtrM-19" value="" style="endArrow=none;html=1;rounded=0;entryX=1;entryY=0.5;entryDx=0;entryDy=0;exitX=0;exitY=0.5;exitDx=0;exitDy=0;strokeColor=light-dark(#000000,#000000);" parent="1" source="g6BjV7B2hw-Xopt8YtrM-18" target="g6BjV7B2hw-Xopt8YtrM-8" edge="1">
          <mxGeometry width="50" height="50" relative="1" as="geometry">
            <mxPoint x="340" y="500" as="sourcePoint" />
            <mxPoint x="340" y="440" as="targetPoint" />
          </mxGeometry>
        </mxCell>
        <mxCell id="g6BjV7B2hw-Xopt8YtrM-20" value="1" style="edgeLabel;html=1;align=center;verticalAlign=middle;resizable=0;points=[];fontColor=light-dark(#000000,#000000);" parent="g6BjV7B2hw-Xopt8YtrM-19" vertex="1" connectable="0">
          <mxGeometry x="0.5" y="-3" relative="1" as="geometry">
            <mxPoint x="7" as="offset" />
          </mxGeometry>
        </mxCell>
        <mxCell id="g6BjV7B2hw-Xopt8YtrM-21" value="" style="endArrow=classic;html=1;rounded=0;exitX=1;exitY=0.5;exitDx=0;exitDy=0;entryX=0;entryY=0.5;entryDx=0;entryDy=0;strokeColor=light-dark(#000000,#000000);" parent="1" source="g6BjV7B2hw-Xopt8YtrM-18" target="g6BjV7B2hw-Xopt8YtrM-12" edge="1">
          <mxGeometry width="50" height="50" relative="1" as="geometry">
            <mxPoint x="340" y="560" as="sourcePoint" />
            <mxPoint x="340" y="630" as="targetPoint" />
          </mxGeometry>
        </mxCell>
        <mxCell id="g6BjV7B2hw-Xopt8YtrM-22" value="N" style="edgeLabel;html=1;align=center;verticalAlign=middle;resizable=0;points=[];fontColor=light-dark(#000000,#000000);" parent="1" vertex="1" connectable="0">
          <mxGeometry x="730" y="340" as="geometry">
            <mxPoint x="-85" y="19" as="offset" />
          </mxGeometry>
        </mxCell>
        <mxCell id="g6BjV7B2hw-Xopt8YtrM-23" value="&lt;font style=&quot;color: light-dark(rgb(0, 0, 0), rgb(0, 0, 0));&quot;&gt;ODNOSI SE NA&lt;/font&gt;" style="rhombus;whiteSpace=wrap;html=1;fillColor=light-dark(#FFFFFF,#FFFFFF);" parent="1" vertex="1">
          <mxGeometry x="210" y="720" width="80" height="80" as="geometry" />
        </mxCell>
        <mxCell id="g6BjV7B2hw-Xopt8YtrM-24" value="" style="endArrow=none;html=1;rounded=0;entryX=0.5;entryY=1;entryDx=0;entryDy=0;strokeColor=light-dark(#000000,#000000);" parent="1" edge="1">
          <mxGeometry width="50" height="50" relative="1" as="geometry">
            <mxPoint x="250" y="720" as="sourcePoint" />
            <mxPoint x="249.71" y="670" as="targetPoint" />
          </mxGeometry>
        </mxCell>
        <mxCell id="g6BjV7B2hw-Xopt8YtrM-25" value="N" style="edgeLabel;html=1;align=center;verticalAlign=middle;resizable=0;points=[];fontColor=light-dark(#000000,#000000);" parent="g6BjV7B2hw-Xopt8YtrM-24" vertex="1" connectable="0">
          <mxGeometry x="0.5" y="-3" relative="1" as="geometry">
            <mxPoint x="7" as="offset" />
          </mxGeometry>
        </mxCell>
        <mxCell id="g6BjV7B2hw-Xopt8YtrM-26" value="" style="endArrow=classic;html=1;rounded=0;exitX=0.5;exitY=1;exitDx=0;exitDy=0;entryX=0.5;entryY=0;entryDx=0;entryDy=0;strokeColor=light-dark(#000000,#000000);" parent="1" source="g6BjV7B2hw-Xopt8YtrM-23" target="g6BjV7B2hw-Xopt8YtrM-9" edge="1">
          <mxGeometry width="50" height="50" relative="1" as="geometry">
            <mxPoint x="340" y="780" as="sourcePoint" />
            <mxPoint x="340" y="850" as="targetPoint" />
          </mxGeometry>
        </mxCell>
        <mxCell id="g6BjV7B2hw-Xopt8YtrM-27" value="1" style="edgeLabel;html=1;align=center;verticalAlign=middle;resizable=0;points=[];fontColor=light-dark(#000000,#000000);" parent="1" vertex="1" connectable="0">
          <mxGeometry x="350" y="830" as="geometry">
            <mxPoint x="-85" y="19" as="offset" />
          </mxGeometry>
        </mxCell>
        <mxCell id="g6BjV7B2hw-Xopt8YtrM-28" value="&lt;font style=&quot;color: light-dark(rgb(0, 0, 0), rgb(0, 0, 0));&quot;&gt;IMA&lt;/font&gt;" style="rhombus;whiteSpace=wrap;html=1;fillColor=light-dark(#FFFFFF,#FFFFFF);" parent="1" vertex="1">
          <mxGeometry x="430" y="850" width="80" height="80" as="geometry" />
        </mxCell>
        <mxCell id="g6BjV7B2hw-Xopt8YtrM-29" value="" style="endArrow=none;html=1;rounded=0;entryX=1;entryY=0.5;entryDx=0;entryDy=0;exitX=0;exitY=0.5;exitDx=0;exitDy=0;strokeColor=light-dark(#000000,#000000);" parent="1" source="g6BjV7B2hw-Xopt8YtrM-28" target="g6BjV7B2hw-Xopt8YtrM-9" edge="1">
          <mxGeometry width="50" height="50" relative="1" as="geometry">
            <mxPoint x="490" y="790" as="sourcePoint" />
            <mxPoint x="370" y="790" as="targetPoint" />
          </mxGeometry>
        </mxCell>
        <mxCell id="g6BjV7B2hw-Xopt8YtrM-30" value="1" style="edgeLabel;html=1;align=center;verticalAlign=middle;resizable=0;points=[];fontColor=light-dark(#000000,#000000);" parent="g6BjV7B2hw-Xopt8YtrM-29" vertex="1" connectable="0">
          <mxGeometry x="0.5" y="-3" relative="1" as="geometry">
            <mxPoint x="7" as="offset" />
          </mxGeometry>
        </mxCell>
        <mxCell id="g6BjV7B2hw-Xopt8YtrM-31" value="" style="endArrow=classic;html=1;rounded=0;exitX=1;exitY=0.5;exitDx=0;exitDy=0;entryX=0;entryY=0.5;entryDx=0;entryDy=0;strokeColor=light-dark(#000000,#000000);" parent="1" source="g6BjV7B2hw-Xopt8YtrM-28" target="g6BjV7B2hw-Xopt8YtrM-10" edge="1">
          <mxGeometry width="50" height="50" relative="1" as="geometry">
            <mxPoint x="540" y="730" as="sourcePoint" />
            <mxPoint x="690" y="730" as="targetPoint" />
          </mxGeometry>
        </mxCell>
        <mxCell id="g6BjV7B2hw-Xopt8YtrM-32" value="N" style="edgeLabel;html=1;align=center;verticalAlign=middle;resizable=0;points=[];fontColor=light-dark(#000000,#000000);" parent="1" vertex="1" connectable="0">
          <mxGeometry x="710" y="860" as="geometry">
            <mxPoint x="-85" y="19" as="offset" />
          </mxGeometry>
        </mxCell>
        <mxCell id="g6BjV7B2hw-Xopt8YtrM-33" value="&lt;font style=&quot;color: light-dark(rgb(0, 0, 0), rgb(0, 0, 0));&quot;&gt;Naziv&lt;/font&gt;" style="ellipse;whiteSpace=wrap;html=1;strokeColor=light-dark(#000000,#000000);fillColor=light-dark(#FFFFFF,#FFFFFF);" parent="1" vertex="1">
          <mxGeometry x="70" y="970" width="70" height="35" as="geometry" />
        </mxCell>
        <mxCell id="g6BjV7B2hw-Xopt8YtrM-34" value="&lt;font style=&quot;color: light-dark(rgb(0, 0, 0), rgb(0, 0, 0));&quot;&gt;Simbol&lt;/font&gt;" style="ellipse;whiteSpace=wrap;html=1;strokeColor=light-dark(#000000,#000000);fillColor=light-dark(#FFFFFF,#FFFFFF);" parent="1" vertex="1">
          <mxGeometry x="170" y="970" width="70" height="35" as="geometry" />
        </mxCell>
        <mxCell id="g6BjV7B2hw-Xopt8YtrM-35" value="&lt;font style=&quot;color: light-dark(rgb(0, 0, 0), rgb(0, 0, 0));&quot;&gt;Sektor&lt;/font&gt;" style="ellipse;whiteSpace=wrap;html=1;strokeColor=light-dark(#000000,#000000);fillColor=light-dark(#FFFFFF,#FFFFFF);" parent="1" vertex="1">
          <mxGeometry x="270" y="970" width="70" height="35" as="geometry" />
        </mxCell>
        <mxCell id="g6BjV7B2hw-Xopt8YtrM-36" value="&lt;font style=&quot;color: light-dark(rgb(0, 0, 0), rgb(0, 0, 0));&quot;&gt;Trenutna cijena&lt;/font&gt;" style="ellipse;whiteSpace=wrap;html=1;strokeColor=light-dark(#000000,#000000);fillColor=light-dark(#FFFFFF,#FFFFFF);" parent="1" vertex="1">
          <mxGeometry x="60" y="895" width="70" height="35" as="geometry" />
        </mxCell>
        <mxCell id="g6BjV7B2hw-Xopt8YtrM-38" value="" style="endArrow=classic;html=1;rounded=0;exitX=0;exitY=0.5;exitDx=0;exitDy=0;entryX=1;entryY=0.5;entryDx=0;entryDy=0;strokeColor=light-dark(#000000,#000000);" parent="1" source="g6BjV7B2hw-Xopt8YtrM-9" target="g6BjV7B2hw-Xopt8YtrM-36" edge="1">
          <mxGeometry width="50" height="50" relative="1" as="geometry">
            <mxPoint x="160" y="820" as="sourcePoint" />
            <mxPoint x="160" y="880" as="targetPoint" />
          </mxGeometry>
        </mxCell>
        <mxCell id="g6BjV7B2hw-Xopt8YtrM-39" value="" style="endArrow=classic;html=1;rounded=0;exitX=0;exitY=1;exitDx=0;exitDy=0;entryX=1;entryY=0;entryDx=0;entryDy=0;strokeColor=light-dark(#000000,#000000);" parent="1" source="g6BjV7B2hw-Xopt8YtrM-9" target="g6BjV7B2hw-Xopt8YtrM-33" edge="1">
          <mxGeometry width="50" height="50" relative="1" as="geometry">
            <mxPoint x="230" y="920" as="sourcePoint" />
            <mxPoint x="170" y="943" as="targetPoint" />
          </mxGeometry>
        </mxCell>
        <mxCell id="g6BjV7B2hw-Xopt8YtrM-40" value="" style="endArrow=classic;html=1;rounded=0;exitX=0.25;exitY=1;exitDx=0;exitDy=0;entryX=0.5;entryY=0;entryDx=0;entryDy=0;strokeColor=light-dark(#000000,#000000);" parent="1" source="g6BjV7B2hw-Xopt8YtrM-9" target="g6BjV7B2hw-Xopt8YtrM-34" edge="1">
          <mxGeometry width="50" height="50" relative="1" as="geometry">
            <mxPoint x="280" y="940" as="sourcePoint" />
            <mxPoint x="220" y="995" as="targetPoint" />
          </mxGeometry>
        </mxCell>
        <mxCell id="g6BjV7B2hw-Xopt8YtrM-41" value="" style="endArrow=classic;html=1;rounded=0;exitX=0.75;exitY=1;exitDx=0;exitDy=0;entryX=0.5;entryY=0;entryDx=0;entryDy=0;strokeColor=light-dark(#000000,#000000);" parent="1" source="g6BjV7B2hw-Xopt8YtrM-9" target="g6BjV7B2hw-Xopt8YtrM-35" edge="1">
          <mxGeometry width="50" height="50" relative="1" as="geometry">
            <mxPoint x="320" y="940" as="sourcePoint" />
            <mxPoint x="260" y="995" as="targetPoint" />
          </mxGeometry>
        </mxCell>
        <mxCell id="g6BjV7B2hw-Xopt8YtrM-42" value="&lt;font style=&quot;color: light-dark(rgb(0, 0, 0), rgb(0, 0, 0));&quot;&gt;Vrsta&lt;/font&gt;" style="ellipse;whiteSpace=wrap;html=1;strokeColor=light-dark(#000000,#000000);fillColor=light-dark(#FFFFFF,#FFFFFF);" parent="1" vertex="1">
          <mxGeometry x="70" y="590" width="70" height="35" as="geometry" />
        </mxCell>
        <mxCell id="g6BjV7B2hw-Xopt8YtrM-43" value="&lt;font style=&quot;color: light-dark(rgb(0, 0, 0), rgb(0, 0, 0));&quot;&gt;Vrijeme&lt;/font&gt;" style="ellipse;whiteSpace=wrap;html=1;strokeColor=light-dark(#000000,#000000);fillColor=light-dark(#FFFFFF,#FFFFFF);" parent="1" vertex="1">
          <mxGeometry x="70" y="650" width="70" height="35" as="geometry" />
        </mxCell>
        <mxCell id="g6BjV7B2hw-Xopt8YtrM-44" value="&lt;font style=&quot;color: light-dark(rgb(0, 0, 0), rgb(0, 0, 0));&quot;&gt;Rezultat&lt;/font&gt;" style="ellipse;whiteSpace=wrap;html=1;strokeColor=light-dark(#000000,#000000);fillColor=light-dark(#FFFFFF,#FFFFFF);" parent="1" vertex="1">
          <mxGeometry x="70" y="710" width="70" height="35" as="geometry" />
        </mxCell>
        <mxCell id="g6BjV7B2hw-Xopt8YtrM-46" value="" style="endArrow=classic;html=1;rounded=0;exitX=0;exitY=0.5;exitDx=0;exitDy=0;strokeColor=light-dark(#000000,#000000);entryX=1;entryY=0.5;entryDx=0;entryDy=0;" parent="1" source="g6BjV7B2hw-Xopt8YtrM-11" target="g6BjV7B2hw-Xopt8YtrM-43" edge="1">
          <mxGeometry width="50" height="50" relative="1" as="geometry">
            <mxPoint x="210" y="730" as="sourcePoint" />
            <mxPoint x="140" y="710" as="targetPoint" />
          </mxGeometry>
        </mxCell>
        <mxCell id="g6BjV7B2hw-Xopt8YtrM-47" value="" style="endArrow=classic;html=1;rounded=0;exitX=0;exitY=1;exitDx=0;exitDy=0;entryX=1;entryY=0.5;entryDx=0;entryDy=0;strokeColor=light-dark(#000000,#000000);" parent="1" source="g6BjV7B2hw-Xopt8YtrM-11" target="g6BjV7B2hw-Xopt8YtrM-44" edge="1">
          <mxGeometry width="50" height="50" relative="1" as="geometry">
            <mxPoint x="220" y="570" as="sourcePoint" />
            <mxPoint x="160" y="593" as="targetPoint" />
          </mxGeometry>
        </mxCell>
        <mxCell id="g6BjV7B2hw-Xopt8YtrM-48" value="" style="endArrow=classic;html=1;rounded=0;exitX=0;exitY=0;exitDx=0;exitDy=0;entryX=1;entryY=0.5;entryDx=0;entryDy=0;strokeColor=light-dark(#000000,#000000);" parent="1" source="g6BjV7B2hw-Xopt8YtrM-11" target="g6BjV7B2hw-Xopt8YtrM-42" edge="1">
          <mxGeometry width="50" height="50" relative="1" as="geometry">
            <mxPoint x="260" y="590" as="sourcePoint" />
            <mxPoint x="200" y="613" as="targetPoint" />
          </mxGeometry>
        </mxCell>
        <mxCell id="g6BjV7B2hw-Xopt8YtrM-49" value="&lt;font style=&quot;color: light-dark(rgb(0, 0, 0), rgb(0, 0, 0));&quot;&gt;Početna cijena&lt;/font&gt;" style="ellipse;whiteSpace=wrap;html=1;strokeColor=light-dark(#000000,#000000);fillColor=light-dark(#FFFFFF,#FFFFFF);" parent="1" vertex="1">
          <mxGeometry x="530" y="960" width="70" height="35" as="geometry" />
        </mxCell>
        <mxCell id="g6BjV7B2hw-Xopt8YtrM-50" value="&lt;font style=&quot;color: light-dark(rgb(0, 0, 0), rgb(0, 0, 0));&quot;&gt;Najviša cijena&lt;/font&gt;" style="ellipse;whiteSpace=wrap;html=1;strokeColor=light-dark(#000000,#000000);fillColor=light-dark(#FFFFFF,#FFFFFF);" parent="1" vertex="1">
          <mxGeometry x="620" y="960" width="70" height="35" as="geometry" />
        </mxCell>
        <mxCell id="g6BjV7B2hw-Xopt8YtrM-51" value="&lt;font style=&quot;color: light-dark(rgb(0, 0, 0), rgb(0, 0, 0));&quot;&gt;Najniža cijena&lt;/font&gt;" style="ellipse;whiteSpace=wrap;html=1;strokeColor=light-dark(#000000,#000000);fillColor=light-dark(#FFFFFF,#FFFFFF);" parent="1" vertex="1">
          <mxGeometry x="710" y="960" width="70" height="35" as="geometry" />
        </mxCell>
        <mxCell id="g6BjV7B2hw-Xopt8YtrM-52" value="&lt;font style=&quot;color: light-dark(rgb(0, 0, 0), rgb(0, 0, 0));&quot;&gt;Završna cijena&lt;/font&gt;" style="ellipse;whiteSpace=wrap;html=1;strokeColor=light-dark(#000000,#000000);fillColor=light-dark(#FFFFFF,#FFFFFF);" parent="1" vertex="1">
          <mxGeometry x="810" y="910" width="70" height="35" as="geometry" />
        </mxCell>
        <mxCell id="g6BjV7B2hw-Xopt8YtrM-53" value="&lt;font style=&quot;color: light-dark(rgb(0, 0, 0), rgb(0, 0, 0));&quot;&gt;Interval&lt;/font&gt;" style="ellipse;whiteSpace=wrap;html=1;strokeColor=light-dark(#000000,#000000);fillColor=light-dark(#FFFFFF,#FFFFFF);" parent="1" vertex="1">
          <mxGeometry x="810" y="860" width="70" height="35" as="geometry" />
        </mxCell>
        <mxCell id="g6BjV7B2hw-Xopt8YtrM-54" value="&lt;font style=&quot;color: light-dark(rgb(0, 0, 0), rgb(0, 0, 0));&quot;&gt;Obujam trgovanja&lt;/font&gt;" style="ellipse;whiteSpace=wrap;html=1;strokeColor=light-dark(#000000,#000000);fillColor=light-dark(#FFFFFF,#FFFFFF);" parent="1" vertex="1">
          <mxGeometry x="800" y="790" width="70" height="35" as="geometry" />
        </mxCell>
        <mxCell id="g6BjV7B2hw-Xopt8YtrM-55" value="&lt;font style=&quot;color: light-dark(rgb(0, 0, 0), rgb(0, 0, 0));&quot;&gt;Vrijeme&lt;/font&gt;" style="ellipse;whiteSpace=wrap;html=1;strokeColor=light-dark(#000000,#000000);fillColor=light-dark(#FFFFFF,#FFFFFF);" parent="1" vertex="1">
          <mxGeometry x="710" y="780" width="70" height="35" as="geometry" />
        </mxCell>
        <mxCell id="g6BjV7B2hw-Xopt8YtrM-56" value="&lt;font style=&quot;color: light-dark(rgb(0, 0, 0), rgb(0, 0, 0));&quot;&gt;Izvor podatka&lt;/font&gt;" style="ellipse;whiteSpace=wrap;html=1;strokeColor=light-dark(#000000,#000000);fillColor=light-dark(#FFFFFF,#FFFFFF);" parent="1" vertex="1">
          <mxGeometry x="610" y="780" width="70" height="35" as="geometry" />
        </mxCell>
        <mxCell id="g6BjV7B2hw-Xopt8YtrM-57" value="" style="endArrow=classic;html=1;rounded=0;exitX=0;exitY=0;exitDx=0;exitDy=0;entryX=0.436;entryY=1.015;entryDx=0;entryDy=0;strokeColor=light-dark(#000000,#000000);entryPerimeter=0;" parent="1" source="g6BjV7B2hw-Xopt8YtrM-10" target="g6BjV7B2hw-Xopt8YtrM-56" edge="1">
          <mxGeometry width="50" height="50" relative="1" as="geometry">
            <mxPoint x="560" y="860" as="sourcePoint" />
            <mxPoint x="585" y="910" as="targetPoint" />
          </mxGeometry>
        </mxCell>
        <mxCell id="g6BjV7B2hw-Xopt8YtrM-58" value="" style="endArrow=classic;html=1;rounded=0;exitX=0.75;exitY=0;exitDx=0;exitDy=0;entryX=0.5;entryY=1;entryDx=0;entryDy=0;strokeColor=light-dark(#000000,#000000);" parent="1" source="g6BjV7B2hw-Xopt8YtrM-10" target="g6BjV7B2hw-Xopt8YtrM-55" edge="1">
          <mxGeometry width="50" height="50" relative="1" as="geometry">
            <mxPoint x="710" y="830" as="sourcePoint" />
            <mxPoint x="735" y="880" as="targetPoint" />
          </mxGeometry>
        </mxCell>
        <mxCell id="g6BjV7B2hw-Xopt8YtrM-59" value="" style="endArrow=classic;html=1;rounded=0;exitX=1;exitY=0;exitDx=0;exitDy=0;entryX=0;entryY=1;entryDx=0;entryDy=0;strokeColor=light-dark(#000000,#000000);" parent="1" source="g6BjV7B2hw-Xopt8YtrM-10" target="g6BjV7B2hw-Xopt8YtrM-54" edge="1">
          <mxGeometry width="50" height="50" relative="1" as="geometry">
            <mxPoint x="780" y="840" as="sourcePoint" />
            <mxPoint x="805" y="890" as="targetPoint" />
          </mxGeometry>
        </mxCell>
        <mxCell id="g6BjV7B2hw-Xopt8YtrM-60" value="" style="endArrow=classic;html=1;rounded=0;exitX=1;exitY=0.5;exitDx=0;exitDy=0;entryX=0;entryY=0.5;entryDx=0;entryDy=0;strokeColor=light-dark(#000000,#000000);" parent="1" source="g6BjV7B2hw-Xopt8YtrM-10" target="g6BjV7B2hw-Xopt8YtrM-53" edge="1">
          <mxGeometry width="50" height="50" relative="1" as="geometry">
            <mxPoint x="880" y="840" as="sourcePoint" />
            <mxPoint x="905" y="890" as="targetPoint" />
          </mxGeometry>
        </mxCell>
        <mxCell id="g6BjV7B2hw-Xopt8YtrM-61" value="" style="endArrow=classic;html=1;rounded=0;exitX=1;exitY=1;exitDx=0;exitDy=0;entryX=0;entryY=0.5;entryDx=0;entryDy=0;strokeColor=light-dark(#000000,#000000);" parent="1" source="g6BjV7B2hw-Xopt8YtrM-10" target="g6BjV7B2hw-Xopt8YtrM-52" edge="1">
          <mxGeometry width="50" height="50" relative="1" as="geometry">
            <mxPoint x="960" y="840" as="sourcePoint" />
            <mxPoint x="985" y="890" as="targetPoint" />
          </mxGeometry>
        </mxCell>
        <mxCell id="g6BjV7B2hw-Xopt8YtrM-62" value="" style="endArrow=classic;html=1;rounded=0;exitX=0.75;exitY=1;exitDx=0;exitDy=0;entryX=0.5;entryY=0;entryDx=0;entryDy=0;strokeColor=light-dark(#000000,#000000);" parent="1" source="g6BjV7B2hw-Xopt8YtrM-10" target="g6BjV7B2hw-Xopt8YtrM-51" edge="1">
          <mxGeometry width="50" height="50" relative="1" as="geometry">
            <mxPoint x="870" y="950" as="sourcePoint" />
            <mxPoint x="895" y="1000" as="targetPoint" />
          </mxGeometry>
        </mxCell>
        <mxCell id="g6BjV7B2hw-Xopt8YtrM-63" value="" style="endArrow=classic;html=1;rounded=0;exitX=0.25;exitY=1;exitDx=0;exitDy=0;entryX=0.5;entryY=0;entryDx=0;entryDy=0;strokeColor=light-dark(#000000,#000000);" parent="1" source="g6BjV7B2hw-Xopt8YtrM-10" target="g6BjV7B2hw-Xopt8YtrM-50" edge="1">
          <mxGeometry width="50" height="50" relative="1" as="geometry">
            <mxPoint x="670" y="940" as="sourcePoint" />
            <mxPoint x="695" y="990" as="targetPoint" />
          </mxGeometry>
        </mxCell>
        <mxCell id="g6BjV7B2hw-Xopt8YtrM-64" value="" style="endArrow=classic;html=1;rounded=0;exitX=0;exitY=1;exitDx=0;exitDy=0;entryX=0.5;entryY=0;entryDx=0;entryDy=0;strokeColor=light-dark(#000000,#000000);" parent="1" source="g6BjV7B2hw-Xopt8YtrM-10" target="g6BjV7B2hw-Xopt8YtrM-49" edge="1">
          <mxGeometry width="50" height="50" relative="1" as="geometry">
            <mxPoint x="570" y="910" as="sourcePoint" />
            <mxPoint x="595" y="960" as="targetPoint" />
          </mxGeometry>
        </mxCell>
        <mxCell id="g6BjV7B2hw-Xopt8YtrM-65" value="&lt;font style=&quot;color: light-dark(rgb(0, 0, 0), rgb(0, 0, 0));&quot;&gt;Naziv&lt;/font&gt;" style="ellipse;whiteSpace=wrap;html=1;strokeColor=light-dark(#000000,#000000);fillColor=light-dark(#FFFFFF,#FFFFFF);" parent="1" vertex="1">
          <mxGeometry x="600" y="440" width="70" height="35" as="geometry" />
        </mxCell>
        <mxCell id="g6BjV7B2hw-Xopt8YtrM-66" value="&lt;font style=&quot;color: light-dark(rgb(0, 0, 0), rgb(0, 0, 0));&quot;&gt;Sadržaj&lt;/font&gt;" style="ellipse;whiteSpace=wrap;html=1;strokeColor=light-dark(#000000,#000000);fillColor=light-dark(#FFFFFF,#FFFFFF);" parent="1" vertex="1">
          <mxGeometry x="690" y="440" width="70" height="35" as="geometry" />
        </mxCell>
        <mxCell id="g6BjV7B2hw-Xopt8YtrM-67" value="&lt;font style=&quot;color: light-dark(rgb(0, 0, 0), rgb(0, 0, 0));&quot;&gt;Datum&lt;/font&gt;" style="ellipse;whiteSpace=wrap;html=1;strokeColor=light-dark(#000000,#000000);fillColor=light-dark(#FFFFFF,#FFFFFF);" parent="1" vertex="1">
          <mxGeometry x="770" y="440" width="70" height="35" as="geometry" />
        </mxCell>
        <mxCell id="g6BjV7B2hw-Xopt8YtrM-68" value="" style="endArrow=classic;html=1;rounded=0;exitX=1;exitY=1;exitDx=0;exitDy=0;entryX=0;entryY=0;entryDx=0;entryDy=0;strokeColor=light-dark(#000000,#000000);" parent="1" source="g6BjV7B2hw-Xopt8YtrM-12" target="g6BjV7B2hw-Xopt8YtrM-67" edge="1">
          <mxGeometry width="50" height="50" relative="1" as="geometry">
            <mxPoint x="950" y="524" as="sourcePoint" />
            <mxPoint x="951" y="480" as="targetPoint" />
          </mxGeometry>
        </mxCell>
        <mxCell id="g6BjV7B2hw-Xopt8YtrM-69" value="" style="endArrow=classic;html=1;rounded=0;exitX=0.5;exitY=1;exitDx=0;exitDy=0;entryX=0.5;entryY=0;entryDx=0;entryDy=0;strokeColor=light-dark(#000000,#000000);" parent="1" source="g6BjV7B2hw-Xopt8YtrM-12" target="g6BjV7B2hw-Xopt8YtrM-66" edge="1">
          <mxGeometry width="50" height="50" relative="1" as="geometry">
            <mxPoint x="780" y="530" as="sourcePoint" />
            <mxPoint x="790" y="560" as="targetPoint" />
          </mxGeometry>
        </mxCell>
        <mxCell id="g6BjV7B2hw-Xopt8YtrM-70" value="" style="endArrow=classic;html=1;rounded=0;exitX=0;exitY=1;exitDx=0;exitDy=0;entryX=0.5;entryY=0;entryDx=0;entryDy=0;strokeColor=light-dark(#000000,#000000);" parent="1" source="g6BjV7B2hw-Xopt8YtrM-12" target="g6BjV7B2hw-Xopt8YtrM-65" edge="1">
          <mxGeometry width="50" height="50" relative="1" as="geometry">
            <mxPoint x="690" y="590" as="sourcePoint" />
            <mxPoint x="700" y="620" as="targetPoint" />
          </mxGeometry>
        </mxCell>
        <mxCell id="g6BjV7B2hw-Xopt8YtrM-71" value="&lt;font style=&quot;color: light-dark(rgb(0, 0, 0), rgb(0, 0, 0));&quot;&gt;Email&lt;/font&gt;" style="ellipse;whiteSpace=wrap;html=1;strokeColor=light-dark(#000000,#000000);fillColor=light-dark(#FFFFFF,#FFFFFF);" parent="1" vertex="1">
          <mxGeometry x="90" y="280" width="70" height="35" as="geometry" />
        </mxCell>
        <mxCell id="g6BjV7B2hw-Xopt8YtrM-72" value="&lt;font style=&quot;color: light-dark(rgb(0, 0, 0), rgb(0, 0, 0));&quot;&gt;Korisničko ime&lt;/font&gt;" style="ellipse;whiteSpace=wrap;html=1;strokeColor=light-dark(#000000,#000000);fillColor=light-dark(#FFFFFF,#FFFFFF);" parent="1" vertex="1">
          <mxGeometry x="180" y="260" width="70" height="35" as="geometry" />
        </mxCell>
        <mxCell id="g6BjV7B2hw-Xopt8YtrM-73" value="&lt;font style=&quot;color: light-dark(rgb(0, 0, 0), rgb(0, 0, 0));&quot;&gt;Tip korisnika&lt;/font&gt;" style="ellipse;whiteSpace=wrap;html=1;strokeColor=light-dark(#000000,#000000);fillColor=light-dark(#FFFFFF,#FFFFFF);" parent="1" vertex="1">
          <mxGeometry x="260" y="280" width="70" height="35" as="geometry" />
        </mxCell>
        <mxCell id="g6BjV7B2hw-Xopt8YtrM-74" value="&lt;font style=&quot;color: light-dark(rgb(0, 0, 0), rgb(0, 0, 0));&quot;&gt;Lozinka&lt;/font&gt;" style="ellipse;whiteSpace=wrap;html=1;strokeColor=light-dark(#000000,#000000);fillColor=light-dark(#FFFFFF,#FFFFFF);" parent="1" vertex="1">
          <mxGeometry x="90" y="352.5" width="70" height="35" as="geometry" />
        </mxCell>
        <mxCell id="g6BjV7B2hw-Xopt8YtrM-75" value="" style="endArrow=classic;html=1;rounded=0;exitX=0;exitY=0.5;exitDx=0;exitDy=0;entryX=1;entryY=0.5;entryDx=0;entryDy=0;strokeColor=light-dark(#000000,#000000);" parent="1" source="g6BjV7B2hw-Xopt8YtrM-8" target="g6BjV7B2hw-Xopt8YtrM-74" edge="1">
          <mxGeometry width="50" height="50" relative="1" as="geometry">
            <mxPoint x="75" y="410" as="sourcePoint" />
            <mxPoint x="50" y="450" as="targetPoint" />
          </mxGeometry>
        </mxCell>
        <mxCell id="g6BjV7B2hw-Xopt8YtrM-76" value="" style="endArrow=classic;html=1;rounded=0;exitX=0;exitY=0;exitDx=0;exitDy=0;entryX=1;entryY=1;entryDx=0;entryDy=0;strokeColor=light-dark(#000000,#000000);" parent="1" source="g6BjV7B2hw-Xopt8YtrM-8" target="g6BjV7B2hw-Xopt8YtrM-71" edge="1">
          <mxGeometry width="50" height="50" relative="1" as="geometry">
            <mxPoint x="190" y="400" as="sourcePoint" />
            <mxPoint x="160" y="400" as="targetPoint" />
          </mxGeometry>
        </mxCell>
        <mxCell id="g6BjV7B2hw-Xopt8YtrM-77" value="" style="endArrow=classic;html=1;rounded=0;exitX=0.25;exitY=0;exitDx=0;exitDy=0;entryX=0.5;entryY=1;entryDx=0;entryDy=0;strokeColor=light-dark(#000000,#000000);" parent="1" source="g6BjV7B2hw-Xopt8YtrM-8" target="g6BjV7B2hw-Xopt8YtrM-72" edge="1">
          <mxGeometry width="50" height="50" relative="1" as="geometry">
            <mxPoint x="230" y="320" as="sourcePoint" />
            <mxPoint x="200" y="320" as="targetPoint" />
          </mxGeometry>
        </mxCell>
        <mxCell id="g6BjV7B2hw-Xopt8YtrM-78" value="" style="endArrow=classic;html=1;rounded=0;exitX=0.75;exitY=0;exitDx=0;exitDy=0;strokeColor=light-dark(#000000,#000000);entryX=0.5;entryY=1;entryDx=0;entryDy=0;" parent="1" source="g6BjV7B2hw-Xopt8YtrM-8" target="g6BjV7B2hw-Xopt8YtrM-73" edge="1">
          <mxGeometry width="50" height="50" relative="1" as="geometry">
            <mxPoint x="290" y="310" as="sourcePoint" />
            <mxPoint x="360" y="340" as="targetPoint" />
          </mxGeometry>
        </mxCell>
        <mxCell id="g6BjV7B2hw-Xopt8YtrM-79" value="&lt;font style=&quot;color: light-dark(rgb(0, 0, 0), rgb(0, 0, 0));&quot;&gt;NOTIFIKACIJA&lt;/font&gt;" style="rounded=0;whiteSpace=wrap;html=1;fillColor=light-dark(#FFFFFF,#FFFFFF);" parent="1" vertex="1">
          <mxGeometry x="490" y="590" width="120" height="60" as="geometry" />
        </mxCell>
        <mxCell id="g6BjV7B2hw-Xopt8YtrM-80" value="&lt;font style=&quot;color: light-dark(rgb(0, 0, 0), rgb(0, 0, 0));&quot;&gt;Tip&lt;/font&gt;" style="ellipse;whiteSpace=wrap;html=1;strokeColor=light-dark(#000000,#000000);fillColor=light-dark(#FFFFFF,#FFFFFF);" parent="1" vertex="1">
          <mxGeometry x="640" y="545" width="70" height="35" as="geometry" />
        </mxCell>
        <mxCell id="g6BjV7B2hw-Xopt8YtrM-81" value="&lt;font style=&quot;color: light-dark(rgb(0, 0, 0), rgb(0, 0, 0));&quot;&gt;Poruka&lt;/font&gt;" style="ellipse;whiteSpace=wrap;html=1;strokeColor=light-dark(#000000,#000000);fillColor=light-dark(#FFFFFF,#FFFFFF);" parent="1" vertex="1">
          <mxGeometry x="640" y="610" width="70" height="35" as="geometry" />
        </mxCell>
        <mxCell id="g6BjV7B2hw-Xopt8YtrM-82" value="&lt;font style=&quot;color: light-dark(rgb(0, 0, 0), rgb(0, 0, 0));&quot;&gt;Vrijeme slanja&lt;/font&gt;" style="ellipse;whiteSpace=wrap;html=1;strokeColor=light-dark(#000000,#000000);fillColor=light-dark(#FFFFFF,#FFFFFF);" parent="1" vertex="1">
          <mxGeometry x="640" y="670" width="70" height="35" as="geometry" />
        </mxCell>
        <mxCell id="g6BjV7B2hw-Xopt8YtrM-83" value="&lt;font style=&quot;color: light-dark(rgb(0, 0, 0), rgb(0, 0, 0));&quot;&gt;PRIMA&lt;/font&gt;" style="rhombus;whiteSpace=wrap;html=1;fillColor=light-dark(#FFFFFF,#FFFFFF);" parent="1" vertex="1">
          <mxGeometry x="370" y="475" width="80" height="80" as="geometry" />
        </mxCell>
        <mxCell id="g6BjV7B2hw-Xopt8YtrM-84" value="" style="endArrow=classic;html=1;rounded=0;exitX=1;exitY=0.5;exitDx=0;exitDy=0;entryX=0;entryY=0.5;entryDx=0;entryDy=0;strokeColor=light-dark(#000000,#000000);" parent="1" source="g6BjV7B2hw-Xopt8YtrM-79" target="g6BjV7B2hw-Xopt8YtrM-81" edge="1">
          <mxGeometry width="50" height="50" relative="1" as="geometry">
            <mxPoint x="590" y="724" as="sourcePoint" />
            <mxPoint x="591" y="680" as="targetPoint" />
          </mxGeometry>
        </mxCell>
        <mxCell id="g6BjV7B2hw-Xopt8YtrM-85" value="" style="endArrow=classic;html=1;rounded=0;exitX=1;exitY=1;exitDx=0;exitDy=0;entryX=0;entryY=0.5;entryDx=0;entryDy=0;strokeColor=light-dark(#000000,#000000);" parent="1" source="g6BjV7B2hw-Xopt8YtrM-79" target="g6BjV7B2hw-Xopt8YtrM-82" edge="1">
          <mxGeometry width="50" height="50" relative="1" as="geometry">
            <mxPoint x="600" y="724" as="sourcePoint" />
            <mxPoint x="601" y="680" as="targetPoint" />
          </mxGeometry>
        </mxCell>
        <mxCell id="g6BjV7B2hw-Xopt8YtrM-86" value="" style="endArrow=classic;html=1;rounded=0;exitX=1;exitY=0;exitDx=0;exitDy=0;entryX=0;entryY=0.5;entryDx=0;entryDy=0;strokeColor=light-dark(#000000,#000000);" parent="1" source="g6BjV7B2hw-Xopt8YtrM-79" target="g6BjV7B2hw-Xopt8YtrM-80" edge="1">
          <mxGeometry width="50" height="50" relative="1" as="geometry">
            <mxPoint x="580" y="744" as="sourcePoint" />
            <mxPoint x="581" y="700" as="targetPoint" />
          </mxGeometry>
        </mxCell>
        <mxCell id="g6BjV7B2hw-Xopt8YtrM-87" value="" style="endArrow=classic;html=1;rounded=0;exitX=1;exitY=1;exitDx=0;exitDy=0;entryX=0;entryY=0;entryDx=0;entryDy=0;strokeColor=light-dark(#000000,#000000);" parent="1" source="g6BjV7B2hw-Xopt8YtrM-83" target="g6BjV7B2hw-Xopt8YtrM-79" edge="1">
          <mxGeometry width="50" height="50" relative="1" as="geometry">
            <mxPoint x="550" y="564" as="sourcePoint" />
            <mxPoint x="551" y="520" as="targetPoint" />
          </mxGeometry>
        </mxCell>
        <mxCell id="g6BjV7B2hw-Xopt8YtrM-88" value="" style="endArrow=none;html=1;rounded=0;entryX=1;entryY=1;entryDx=0;entryDy=0;strokeColor=light-dark(#000000,#000000);exitX=0;exitY=0;exitDx=0;exitDy=0;" parent="1" source="g6BjV7B2hw-Xopt8YtrM-83" target="g6BjV7B2hw-Xopt8YtrM-8" edge="1">
          <mxGeometry width="50" height="50" relative="1" as="geometry">
            <mxPoint x="330.28999999999996" y="520" as="sourcePoint" />
            <mxPoint x="330" y="470" as="targetPoint" />
          </mxGeometry>
        </mxCell>
        <mxCell id="g6BjV7B2hw-Xopt8YtrM-89" value="1" style="edgeLabel;html=1;align=center;verticalAlign=middle;resizable=0;points=[];fontColor=light-dark(#000000,#000000);" parent="g6BjV7B2hw-Xopt8YtrM-88" vertex="1" connectable="0">
          <mxGeometry x="0.5" y="-3" relative="1" as="geometry">
            <mxPoint x="7" as="offset" />
          </mxGeometry>
        </mxCell>
        <mxCell id="g6BjV7B2hw-Xopt8YtrM-90" value="N" style="edgeLabel;html=1;align=center;verticalAlign=middle;resizable=0;points=[];fontColor=light-dark(#000000,#000000);" parent="1" vertex="1" connectable="0">
          <mxGeometry x="580" y="555" as="geometry">
            <mxPoint x="-85" y="19" as="offset" />
          </mxGeometry>
        </mxCell>
      </root>
    </mxGraphModel>
  </diagram>
</mxfile>
